<svg width="16" height="16" viewBox="0 0 16 16" fill="none" xmlns="http://www.w3.org/2000/svg">
<path d="M15 14.3782C15 14.716 14.7261 14.9899 14.3883 14.9899H1.61167C1.27385 14.9899 0.999985 14.716 0.999985 14.3782C0.999985 14.0404 1.27385 13.7665 1.61167 13.7665H14.3883C14.7261 13.7665 15 14.0404 15 14.3782ZM7.99863 12.6533C7.66082 12.6533 7.38695 12.3794 7.38695 12.0416V1.61168C7.38695 1.27385 7.66082 1 7.99863 1C8.33645 1 8.61031 1.27387 8.61031 1.61168V12.0416C8.61031 12.3794 8.33645 12.6533 7.99863 12.6533ZM8.43116 12.4701C8.19229 12.709 7.80498 12.709 7.56611 12.4701L2.97533 7.87935C2.73646 7.64048 2.73646 7.25317 2.97533 7.0143C3.21421 6.77543 3.60151 6.77543 3.84038 7.0143L8.43116 11.6051C8.67003 11.8439 8.67003 12.2312 8.43116 12.4701ZM7.56611 12.4701C7.32724 12.2312 7.32724 11.8439 7.56611 11.6051L12.1569 7.01428C12.3958 6.77541 12.7831 6.77541 13.0219 7.01428C13.2608 7.25316 13.2608 7.64046 13.0219 7.87933L8.43116 12.4701C8.19227 12.709 7.80498 12.709 7.56611 12.4701Z" fill="#262626"/>
</svg>
