<svg width="16" height="16" viewBox="0 0 16 16" fill="none" xmlns="http://www.w3.org/2000/svg">
<path fill-rule="evenodd" clip-rule="evenodd" d="M11.4933 3.6819V1.59007C11.4933 1.43536 11.4318 1.28698 11.3224 1.17759C11.213 1.06819 11.0646 1.00673 10.9099 1.00673C10.7552 1.00673 10.6069 1.06819 10.4975 1.17759C10.3881 1.28698 10.3266 1.43536 10.3266 1.59007V5.09007C10.3266 5.24477 10.3881 5.39315 10.4975 5.50254C10.6069 5.61194 10.7552 5.6734 10.9099 5.6734L14.4099 5.6734C14.5646 5.6734 14.713 5.61194 14.8224 5.50254C14.9318 5.39315 14.9933 5.24477 14.9933 5.09007C14.9933 4.93536 14.9318 4.78698 14.8224 4.67759C14.713 4.56819 14.5646 4.50673 14.4099 4.50673H12.3181L14.8221 2.00277C14.8778 1.94894 14.9222 1.88456 14.9527 1.81338C14.9833 1.7422 14.9993 1.66565 15 1.58819C15.0006 1.51074 14.9858 1.43393 14.9565 1.36225C14.9271 1.29058 14.8838 1.22546 14.829 1.17071C14.7742 1.11596 14.7091 1.07267 14.6374 1.04336C14.5657 1.01406 14.4888 0.999323 14.4114 1.00002C14.3339 1.00072 14.2574 1.01684 14.1862 1.04744C14.1151 1.07804 14.0507 1.1225 13.9969 1.17823L11.4933 3.6819ZM11.4933 12.3182V14.41C11.4933 14.5647 11.4318 14.7131 11.3224 14.8225C11.213 14.9319 11.0646 14.9933 10.9099 14.9933C10.7552 14.9933 10.6069 14.9319 10.4975 14.8225C10.3881 14.7131 10.3266 14.5647 10.3266 14.41V10.91C10.3266 10.7553 10.3881 10.6069 10.4975 10.4975C10.6069 10.3881 10.7552 10.3267 10.9099 10.3267H14.4099C14.5646 10.3267 14.713 10.3881 14.8224 10.4975C14.9318 10.6069 14.9933 10.7553 14.9933 10.91C14.9933 11.0647 14.9318 11.2131 14.8224 11.3225C14.713 11.4319 14.5646 11.4933 14.4099 11.4933H12.3181L14.8221 13.9973C14.8778 14.0511 14.9222 14.1155 14.9527 14.1867C14.9833 14.2579 14.9993 14.3344 15 14.4119C15.0006 14.4893 14.9858 14.5661 14.9565 14.6378C14.9271 14.7095 14.8838 14.7746 14.829 14.8294C14.7742 14.8841 14.7091 14.9274 14.6374 14.9567C14.5657 14.986 14.4888 15.0007 14.4114 15C14.3339 14.9993 14.2574 14.9832 14.1862 14.9526C14.1151 14.922 14.0507 14.8776 13.9969 14.8218L11.4933 12.3182ZM1.59 11.4933L3.68184 11.4933L1.17817 13.997C1.12244 14.0508 1.07798 14.1151 1.04738 14.1863C1.01678 14.2575 1.00066 14.334 0.999963 14.4115C0.999262 14.4889 1.014 14.5657 1.0433 14.6374C1.07261 14.7091 1.1159 14.7743 1.17065 14.8291C1.2254 14.8838 1.29051 14.9272 1.36219 14.9565C1.43387 14.9859 1.51068 15.0007 1.58813 15C1.66559 14.9994 1.74214 14.9833 1.81332 14.9528C1.8845 14.9222 1.94888 14.8778 2.00271 14.8221L4.50667 12.3182V14.41C4.50667 14.5647 4.56813 14.7131 4.67753 14.8225C4.78692 14.9319 4.93529 14.9933 5.09 14.9933C5.24471 14.9933 5.39309 14.9319 5.50248 14.8225C5.61188 14.7131 5.67334 14.5647 5.67334 14.41L5.67334 10.91C5.67334 10.7553 5.61188 10.6069 5.50248 10.4975C5.39309 10.3881 5.24471 10.3267 5.09 10.3267H1.59C1.4353 10.3267 1.28692 10.3881 1.17753 10.4975C1.06813 10.6069 1.00667 10.7553 1.00667 10.91C1.00667 11.0647 1.06813 11.2131 1.17753 11.3225C1.28692 11.4319 1.43529 11.4933 1.59 11.4933ZM3.68184 4.50673L1.59 4.50673C1.43529 4.50673 1.28692 4.56819 1.17753 4.67759C1.06813 4.78698 1.00667 4.93536 1.00667 5.09007C1.00667 5.24477 1.06813 5.39315 1.17753 5.50254C1.28692 5.61194 1.43529 5.6734 1.59 5.6734L5.09 5.6734C5.24471 5.6734 5.39309 5.61194 5.50248 5.50254C5.61188 5.39315 5.67334 5.24477 5.67334 5.09007L5.67334 1.59007C5.67334 1.43536 5.61188 1.28698 5.50248 1.17759C5.39309 1.06819 5.24471 1.00673 5.09 1.00673C4.93529 1.00673 4.78692 1.06819 4.67753 1.17759C4.56813 1.28698 4.50667 1.43536 4.50667 1.59007L4.50667 3.6819L2.00271 1.17794C1.94888 1.12224 1.8845 1.07783 1.81332 1.04728C1.74214 1.01674 1.66559 1.00067 1.58813 1.00003C1.51068 0.99938 1.43387 1.01417 1.36219 1.04352C1.29051 1.07288 1.2254 1.11622 1.17065 1.17101C1.1159 1.2258 1.07261 1.29094 1.0433 1.36264C1.014 1.43434 0.999263 1.51116 0.999963 1.58861C1.00066 1.66607 1.01678 1.74261 1.04738 1.81376C1.07798 1.88492 1.12244 1.94927 1.17817 2.00306L3.68184 4.50673Z" fill="#262626"/>
</svg>
