<svg width="16" height="16" viewBox="0 0 16 16" fill="none" xmlns="http://www.w3.org/2000/svg">
<path d="M2.9915 2.16667H5.08333C5.23804 2.16667 5.38642 2.10521 5.49581 1.99581C5.60521 1.88642 5.66667 1.73804 5.66667 1.58333C5.66667 1.42862 5.60521 1.28025 5.49581 1.17085C5.38642 1.06146 5.23804 1 5.08333 1H1.58333C1.42862 1 1.28025 1.06146 1.17085 1.17085C1.06146 1.28025 1 1.42862 1 1.58333V5.08333C1 5.23804 1.06146 5.38642 1.17085 5.49581C1.28025 5.60521 1.42862 5.66667 1.58333 5.66667C1.73804 5.66667 1.88642 5.60521 1.99581 5.49581C2.10521 5.38642 2.16667 5.23804 2.16667 5.08333V2.9915L4.67062 5.49546C4.72446 5.55115 4.78884 5.59557 4.86002 5.62612C4.9312 5.65666 5.00775 5.67273 5.0852 5.67337C5.16266 5.67402 5.23947 5.65923 5.31114 5.62988C5.38282 5.60052 5.44794 5.55718 5.50269 5.50239C5.55744 5.4476 5.60073 5.38246 5.63004 5.31076C5.65934 5.23906 5.67407 5.16224 5.67337 5.08479C5.67267 5.00733 5.65656 4.93079 5.62596 4.85963C5.59536 4.78848 5.5509 4.72412 5.49517 4.67033L2.9915 2.16667ZM13.8333 2.9915V5.08333C13.8333 5.23804 13.8948 5.38642 14.0042 5.49581C14.1136 5.60521 14.262 5.66667 14.4167 5.66667C14.5714 5.66667 14.7197 5.60521 14.8291 5.49581C14.9385 5.38642 15 5.23804 15 5.08333V1.58333C15 1.42862 14.9385 1.28025 14.8291 1.17085C14.7197 1.06146 14.5714 1 14.4167 1H10.9167C10.762 1 10.6136 1.06146 10.5042 1.17085C10.3948 1.28025 10.3333 1.42862 10.3333 1.58333C10.3333 1.73804 10.3948 1.88642 10.5042 1.99581C10.6136 2.10521 10.762 2.16667 10.9167 2.16667H13.0085L10.5045 4.67062C10.4488 4.72446 10.4044 4.78884 10.3739 4.86002C10.3433 4.9312 10.3273 5.00775 10.3266 5.0852C10.326 5.16266 10.3408 5.23947 10.3701 5.31114C10.3995 5.38282 10.4428 5.44794 10.4976 5.50269C10.5524 5.55744 10.6175 5.60073 10.6892 5.63004C10.7609 5.65934 10.8378 5.67407 10.9152 5.67337C10.9927 5.67267 11.0692 5.65656 11.1404 5.62596C11.2115 5.59536 11.2759 5.5509 11.3297 5.49517L13.8333 2.9915ZM2.9915 13.8333H5.08333C5.23804 13.8333 5.38642 13.8948 5.49581 14.0042C5.60521 14.1136 5.66667 14.262 5.66667 14.4167C5.66667 14.5714 5.60521 14.7197 5.49581 14.8291C5.38642 14.9385 5.23804 15 5.08333 15H1.58333C1.42862 15 1.28025 14.9385 1.17085 14.8291C1.06146 14.7197 1 14.5714 1 14.4167V10.9167C1 10.762 1.06146 10.6136 1.17085 10.5042C1.28025 10.3948 1.42862 10.3333 1.58333 10.3333C1.73804 10.3333 1.88642 10.3948 1.99581 10.5042C2.10521 10.6136 2.16667 10.762 2.16667 10.9167V13.0085L4.67062 10.5045C4.72446 10.4488 4.78884 10.4044 4.86002 10.3739C4.9312 10.3433 5.00775 10.3273 5.0852 10.3266C5.16266 10.326 5.23947 10.3408 5.31114 10.3701C5.38282 10.3995 5.44794 10.4428 5.50269 10.4976C5.55744 10.5524 5.60073 10.6175 5.63004 10.6892C5.65934 10.7609 5.67407 10.8378 5.67337 10.9152C5.67267 10.9927 5.65656 11.0692 5.62596 11.1404C5.59536 11.2115 5.5509 11.2759 5.49517 11.3297L2.9915 13.8333ZM13.8333 13.0085V10.9167C13.8333 10.762 13.8948 10.6136 14.0042 10.5042C14.1136 10.3948 14.262 10.3333 14.4167 10.3333C14.5714 10.3333 14.7197 10.3948 14.8291 10.5042C14.9385 10.6136 15 10.762 15 10.9167V14.4167C15 14.5714 14.9385 14.7197 14.8291 14.8291C14.7197 14.9385 14.5714 15 14.4167 15H10.9167C10.762 15 10.6136 14.9385 10.5042 14.8291C10.3948 14.7197 10.3333 14.5714 10.3333 14.4167C10.3333 14.262 10.3948 14.1136 10.5042 14.0042C10.6136 13.8948 10.762 13.8333 10.9167 13.8333H13.0085L10.5045 11.3294C10.4488 11.2755 10.4044 11.2112 10.3739 11.14C10.3433 11.0688 10.3273 10.9923 10.3266 10.9148C10.326 10.8373 10.3408 10.7605 10.3701 10.6889C10.3995 10.6172 10.4428 10.5521 10.4976 10.4973C10.5524 10.4426 10.6175 10.3993 10.6892 10.37C10.7609 10.3407 10.8378 10.3259 10.9152 10.3266C10.9927 10.3273 11.0692 10.3434 11.1404 10.374C11.2115 10.4046 11.2759 10.4491 11.3297 10.5048L13.8333 13.0085Z" fill="#262626"/>
</svg>
