<svg width="14" height="14" viewBox="0 0 14 14" fill="none" xmlns="http://www.w3.org/2000/svg">
<path fill-rule="evenodd" clip-rule="evenodd" d="M1.85008 5.35008C2.28767 4.9125 2.88116 4.66667 3.5 4.66667H5.25C5.32661 4.66668 5.40248 4.6516 5.47326 4.62229C5.54404 4.59298 5.60836 4.55001 5.66254 4.49584C5.71671 4.44168 5.75969 4.37737 5.78901 4.30659C5.81833 4.23581 5.83342 4.15995 5.83342 4.08333C5.83342 4.00672 5.81833 3.93086 5.78901 3.86008C5.75969 3.7893 5.71671 3.72499 5.66254 3.67082C5.60836 3.61665 5.54404 3.57369 5.47326 3.54438C5.40248 3.51507 5.32661 3.49999 5.25 3.5H3.5C2.57174 3.5 1.6815 3.86875 1.02513 4.52513C0.368749 5.1815 0 6.07174 0 7C0 7.92826 0.368749 8.8185 1.02513 9.47487C1.6815 10.1313 2.57174 10.5 3.5 10.5H5.25C5.32661 10.5 5.40248 10.4849 5.47326 10.4556C5.54404 10.4263 5.60836 10.3833 5.66254 10.3292C5.71671 10.275 5.75969 10.2107 5.78901 10.1399C5.81833 10.0691 5.83342 9.99328 5.83342 9.91667C5.83342 9.84005 5.81833 9.76419 5.78901 9.69341C5.75969 9.62264 5.71671 9.55832 5.66254 9.50416C5.60836 9.44999 5.54404 9.40702 5.47326 9.37771C5.40248 9.3484 5.32661 9.33332 5.25 9.33333H3.5C2.88116 9.33333 2.28767 9.0875 1.85008 8.64992C1.4125 8.21233 1.16667 7.61884 1.16667 7C1.16667 6.38116 1.4125 5.78767 1.85008 5.35008ZM8.33752 3.67085C8.22813 3.78025 8.16667 3.92862 8.16667 4.08333C8.16667 4.23804 8.22813 4.38642 8.33752 4.49581C8.44692 4.60521 8.59529 4.66667 8.75 4.66667H10.5C11.1188 4.66667 11.7123 4.9125 12.1499 5.35008C12.5875 5.78767 12.8333 6.38116 12.8333 7C12.8333 7.61884 12.5875 8.21233 12.1499 8.64992C11.7123 9.0875 11.1188 9.33333 10.5 9.33333H8.75C8.67339 9.33332 8.59752 9.3484 8.52674 9.37771C8.45596 9.40702 8.39164 9.44999 8.33746 9.50416C8.28329 9.55832 8.24031 9.62264 8.21099 9.69341C8.18167 9.76419 8.16658 9.84005 8.16658 9.91667C8.16658 9.99328 8.18167 10.0691 8.21099 10.1399C8.24031 10.2107 8.28329 10.275 8.33746 10.3292C8.39164 10.3833 8.45596 10.4263 8.52674 10.4556C8.59752 10.4849 8.67339 10.5 8.75 10.5H10.5C11.4283 10.5 12.3185 10.1313 12.9749 9.47487C13.6313 8.8185 14 7.92826 14 7C14 6.07174 13.6313 5.1815 12.9749 4.52513C12.3185 3.86875 11.4283 3.5 10.5 3.5H8.75C8.59529 3.5 8.44692 3.56146 8.33752 3.67085ZM4.2542 6.58753C4.1448 6.69692 4.08334 6.8453 4.08334 7.00001C4.08334 7.15471 4.1448 7.30309 4.2542 7.41248C4.36359 7.52188 4.51197 7.58334 4.66668 7.58334H9.33334C9.48805 7.58334 9.63643 7.52188 9.74582 7.41248C9.85522 7.30309 9.91668 7.15471 9.91668 7.00001C9.91668 6.8453 9.85522 6.69692 9.74582 6.58753C9.63643 6.47813 9.48805 6.41667 9.33334 6.41667H4.66668C4.51197 6.41667 4.36359 6.47813 4.2542 6.58753Z" fill="#262626"/>
</svg>
