<svg width="60" height="60" viewBox="0 0 60 60" fill="none" xmlns="http://www.w3.org/2000/svg">
<path d="M16.7363 43.1212C22.0315 43.1212 26.3396 38.8131 26.3396 33.5179C26.3396 28.2227 22.0315 23.9146 16.7363 23.9146C11.4411 23.9146 7.13302 28.2227 7.13302 33.5179C7.13302 38.8131 11.4411 43.1212 16.7363 43.1212ZM16.7363 25.7964C20.9938 25.7964 24.4571 29.2598 24.4571 33.5172C24.4571 37.7747 20.9931 41.2381 16.7363 41.2381C12.4795 41.2381 9.0148 37.7747 9.0148 33.5172C9.0148 29.2598 12.4788 25.7964 16.7363 25.7964ZM56.729 -3.05176e-05H28.2313C27.4146 -3.05176e-05 26.677 0.305501 26.0993 0.883282L16.5619 10.4207C15.9841 10.9984 15.6786 11.7353 15.6786 12.5527V20.8686C9.17189 21.4078 4.04242 26.8748 4.04242 33.5179C4.04242 37.3633 5.76179 40.8147 8.47097 43.1445L7.69615 44.4864C7.44521 44.3613 7.16031 44.332 6.88739 44.4052C6.58985 44.4851 6.34156 44.6755 6.1878 44.9417L0.457919 54.8658C0.00195176 55.6553 -0.11853 56.5772 0.119106 57.4625C0.356076 58.3472 0.921874 59.086 1.71133 59.542C2.24917 59.8522 2.83694 60 3.41672 60C4.60023 60 5.7538 59.3862 6.38683 58.2893L12.1174 48.3638C12.2711 48.0976 12.3117 47.7874 12.2319 47.4905C12.1586 47.2169 11.9909 46.9859 11.7566 46.8308L12.5281 45.4942C13.5272 45.8463 14.5829 46.0767 15.6786 46.1672V56.9839C15.6786 58.646 17.0312 59.9986 18.6933 59.9986H56.7283C58.3904 59.9986 59.743 58.646 59.743 56.9839V3.01535C59.7437 1.35256 58.3911 -3.05176e-05 56.729 -3.05176e-05ZM26.4308 3.21371V9.82158C26.4308 10.3348 26.0127 10.7528 25.4995 10.7528H18.8917L26.4308 3.21371ZM5.92487 33.5172C5.92487 27.5557 10.7748 22.7058 16.7363 22.7058C22.6978 22.7058 27.5477 27.5557 27.5477 33.5172C27.5477 39.4788 22.6978 44.3287 16.7363 44.3287C10.7748 44.3287 5.92487 39.4788 5.92487 33.5172ZM22.1726 45.4277H25.5734V52.7478H22.1726V45.4277ZM4.75666 57.348C4.33198 58.0836 3.38809 58.3372 2.65189 57.9118C2.29777 57.7075 2.04415 57.3747 1.93698 56.9759C1.82982 56.5766 1.88373 56.1619 2.08809 55.8077L5.85498 49.2831L8.52355 50.824L4.75666 57.348ZM9.46477 49.1932L6.7962 47.6529L7.45319 46.5146L10.1218 48.055L9.46477 49.1932ZM10.1284 45.8856L9.32832 45.4237L9.99529 44.2681C10.2556 44.4318 10.5225 44.5863 10.7947 44.7314L10.1284 45.8856ZM57.8619 56.9833C57.8619 57.6076 57.354 58.1155 56.729 58.1155H18.694C18.0696 58.1155 17.561 57.6076 17.561 56.9833V46.1832C18.5022 46.1226 19.4155 45.9588 20.2902 45.7032V53.6883C20.2902 54.2082 20.7115 54.6295 21.2314 54.6295H26.5146C27.0345 54.6295 27.4559 54.2082 27.4559 53.6883V44.4864C27.4559 43.9666 27.0345 43.5452 26.5146 43.5452H24.509C27.5005 41.2208 29.4295 37.5903 29.4295 33.5172C29.4295 33.1804 29.4162 32.8469 29.3902 32.5174L32.2718 28.7712C32.5327 28.8537 32.8103 28.8983 33.0985 28.8983C33.7029 28.8983 34.2621 28.7013 34.7161 28.3691L39.6571 31.6801C39.6059 31.8897 39.5779 32.1087 39.5779 32.3344C39.5779 33.8487 40.81 35.0802 42.3244 35.0802C43.8387 35.0802 45.0702 33.8481 45.0702 32.3344C45.0702 31.9596 44.9943 31.6022 44.8578 31.276L50.3487 26.2065L50.2742 26.9047C50.2189 27.4213 50.5937 27.8852 51.1102 27.9405C51.1442 27.9438 51.1775 27.9458 51.2114 27.9458C51.6867 27.9458 52.0947 27.587 52.146 27.1044L52.4861 23.9166C52.5148 23.647 52.4256 23.3775 52.2418 23.1784C52.0581 22.9794 51.7985 22.8682 51.5256 22.8762L48.3212 22.9608C47.802 22.9747 47.3913 23.4067 47.4053 23.9266C47.4192 24.4458 47.8466 24.8552 48.3711 24.8425L49.0727 24.8239L43.5811 29.8941C43.2044 29.6998 42.7777 29.5886 42.3251 29.5886C41.7206 29.5886 41.1615 29.7856 40.7075 30.1178L35.7664 26.8069C35.8177 26.5972 35.8457 26.3782 35.8457 26.1525C35.8457 24.6382 34.6135 23.4067 33.0999 23.4067C31.5855 23.4067 30.3541 24.6389 30.3541 26.1525C30.3541 26.693 30.5118 27.1969 30.7821 27.6223L28.9396 30.0179C27.4891 24.9697 22.984 21.2015 17.5624 20.852V12.6346H25.5009C27.0525 12.6346 28.3145 11.3725 28.3145 9.82091V1.88242H56.7303C57.3547 1.88242 57.8632 2.3903 57.8632 3.01535V56.9833H57.8619ZM32.2352 26.1525C32.2352 25.6759 32.6226 25.2885 33.0992 25.2885C33.5758 25.2885 33.9632 25.6759 33.9632 26.1525C33.9632 26.6285 33.5758 27.0165 33.0992 27.0165C32.6226 27.0165 32.2352 26.6285 32.2352 26.1525ZM43.1877 32.3344C43.1877 32.811 42.8003 33.1984 42.3237 33.1984C41.8471 33.1984 41.4597 32.811 41.4597 32.3344C41.4597 31.8578 41.8471 31.4704 42.3237 31.4704C42.8003 31.471 43.1877 31.8585 43.1877 32.3344ZM33.4493 6.30963C33.4493 5.78976 33.8707 5.3684 34.3906 5.3684H37.4066C37.9265 5.3684 38.3478 5.78976 38.3478 6.30963C38.3478 6.8295 37.9265 7.25085 37.4066 7.25085H34.3906C33.8707 7.25085 33.4493 6.8295 33.4493 6.30963ZM45.8476 12.5774H31.915C31.3951 12.5774 30.9738 12.156 30.9738 11.6361C30.9738 11.1163 31.3951 10.6949 31.915 10.6949H45.8476C46.3675 10.6949 46.7889 11.1163 46.7889 11.6361C46.7889 12.156 46.3669 12.5774 45.8476 12.5774ZM52.6818 17.9039H38.9316C38.4117 17.9039 37.9904 17.4825 37.9904 16.9626C37.9904 16.4428 38.4124 16.0214 38.9316 16.0214H52.6818C53.2017 16.0214 53.6231 16.4428 53.6231 16.9626C53.6231 17.4825 53.2017 17.9039 52.6818 17.9039ZM42.14 6.30963C42.14 5.78976 42.5614 5.3684 43.0812 5.3684H52.6825C53.2024 5.3684 53.6237 5.78976 53.6237 6.30963C53.6237 6.8295 53.2024 7.25085 52.6825 7.25085H43.0806C42.5614 7.25085 42.14 6.8295 42.14 6.30963ZM53.6231 11.6361C53.6231 12.156 53.2017 12.5774 52.6818 12.5774H50.9319C50.412 12.5774 49.9906 12.156 49.9906 11.6361C49.9906 11.1163 50.412 10.6949 50.9319 10.6949H52.6818C53.2017 10.6949 53.6231 11.1163 53.6231 11.6361ZM35.0935 16.9626C35.0935 17.4825 34.6721 17.9039 34.1523 17.9039H22.7411C22.2212 17.9039 21.7999 17.4825 21.7999 16.9626C21.7999 16.4428 22.2212 16.0214 22.7411 16.0214H34.1523C34.6721 16.0214 35.0935 16.4428 35.0935 16.9626ZM44.9657 37.7334H39.6824C39.1626 37.7334 38.7412 38.1548 38.7412 38.6747V53.6896C38.7412 54.2095 39.1626 54.6309 39.6824 54.6309H44.9657C45.4855 54.6309 45.9069 54.2095 45.9069 53.6896V38.674C45.9069 38.1548 45.4855 37.7334 44.9657 37.7334ZM44.0244 52.7478H40.6237V39.6152H44.0244V52.7478ZM35.7398 33.3475H30.4566C29.9367 33.3475 29.5154 33.7689 29.5154 34.2887V53.689C29.5154 54.2088 29.9367 54.6302 30.4566 54.6302H35.7398C36.2597 54.6302 36.681 54.2088 36.681 53.689V34.2887C36.681 33.7689 36.2597 33.3475 35.7398 33.3475ZM34.7993 52.7478H31.3985V35.2299H34.7993V52.7478ZM54.1909 29.2152H48.9076C48.3878 29.2152 47.9664 29.6365 47.9664 30.1564V53.689C47.9664 54.2088 48.3878 54.6302 48.9076 54.6302H54.1909C54.7107 54.6302 55.1321 54.2088 55.1321 53.689V30.1564C55.1321 29.6365 54.7107 29.2152 54.1909 29.2152ZM53.2503 52.7478H49.8495V31.0976H53.2503V52.7478Z" fill="#BEBEBE"/>
</svg>
