<svg width="16" height="16" viewBox="0 0 16 16" fill="none" xmlns="http://www.w3.org/2000/svg">
<g clip-path="url(#clip0_131_2310)">
<path d="M15.2728 7.5398L15.3106 7.53907L15.3433 7.53688C15.3626 7.53498 15.3817 7.5323 15.4008 7.52887L15.4306 7.52306C15.4448 7.5201 15.4589 7.51646 15.4728 7.51215L15.515 7.49905C15.6246 7.46008 15.7234 7.3955 15.803 7.31067L15.7455 7.36523C15.7647 7.34852 15.7831 7.33104 15.8008 7.31284L15.8081 7.30484C15.8605 7.24731 15.9037 7.18205 15.9361 7.11135L15.9543 7.06844L15.9674 7.03134L15.979 6.98988C15.9829 6.97525 15.986 6.96045 15.9885 6.94552L15.9943 6.90914C15.9981 6.87704 16 6.84474 16.0001 6.81241L15.9987 6.86405C15.9995 6.84952 16 6.83496 16.0001 6.82041V2.44811C15.9992 2.2558 15.9221 2.07169 15.7858 1.93604C15.6495 1.80039 15.465 1.72424 15.2727 1.72424C15.0804 1.72424 14.896 1.80039 14.7596 1.93604C14.6233 2.07169 14.5463 2.2558 14.5454 2.44811V5.13069L12.412 3.12604C11.3225 2.03849 9.91617 1.3246 8.39525 1.0871C6.87432 0.849603 5.31726 1.10075 3.94814 1.80439L3.75393 1.9084C2.37404 2.67158 1.27949 3.86247 0.63515 5.3017C-0.0091877 6.74092 -0.168428 8.35055 0.181417 9.88813C0.531263 11.4257 1.37125 12.808 2.57485 13.8267C3.77846 14.8455 5.28051 15.4456 6.85475 15.5366C8.42916 15.6272 9.99034 15.2036 11.3031 14.3297C12.6158 13.4558 13.609 12.1789 14.1329 10.6915C14.1647 10.6015 14.1783 10.506 14.1731 10.4107C14.168 10.3153 14.1441 10.2219 14.1028 10.1358C14.0615 10.0497 14.0037 9.97251 13.9326 9.90874C13.8615 9.84497 13.7786 9.79583 13.6885 9.76412C13.5984 9.73241 13.503 9.71875 13.4076 9.72392C13.3123 9.72909 13.2189 9.753 13.1327 9.79427C13.0466 9.83554 12.9695 9.89336 12.9057 9.96445C12.8419 10.0355 12.7928 10.1185 12.7611 10.2086C12.3422 11.3989 11.5478 12.4208 10.4974 13.1202C9.44707 13.8196 8.19782 14.1586 6.93801 14.086C5.6782 14.0135 4.47613 13.5333 3.51305 12.7179C2.54997 11.9025 1.87809 10.7961 1.5987 9.56554C1.31867 8.33535 1.44606 7.04746 1.96166 5.89596C2.47725 4.74446 3.35313 3.79173 4.45731 3.18132C5.56501 2.57016 6.84156 2.3362 8.094 2.5148C9.34645 2.6934 10.5067 3.27486 11.3994 4.17128L13.4368 6.08429L10.9084 6.08502C10.7303 6.08505 10.5583 6.15047 10.4252 6.26885C10.2921 6.38724 10.207 6.55037 10.1862 6.72731L10.1811 6.81241C10.1811 7.00532 10.2577 7.19033 10.3941 7.32674C10.5305 7.46315 10.7156 7.53978 10.9085 7.53978H15.2728V7.5398Z" fill="#262626"/>
</g>
<defs>
<clipPath id="clip0_131_2310">
<rect width="16" height="16" fill="white" transform="matrix(-1 0 0 1 16 0)"/>
</clipPath>
</defs>
</svg>
