<!-- 绘制了一个放大镜的图标，其中包括一个圆形表示镜片和一个与镜片连接的手柄。 -->
<svg width="14" height="14" viewBox="0 0 14 14" fill="none" xmlns="http://www.w3.org/2000/svg">
<path d="M13 11.9608L10.1583 9.11908C10.8119 8.24628 11.1651 7.18674 11.1651 6.08254C11.1651 3.28146 8.88363 1 6.08255 1C3.28147 1 1.00001 3.28146 1.00001 6.08254C1.00001 8.88363 3.28147 11.1651 6.08255 11.1651C7.28418 11.1651 8.41273 10.7551 9.318 10.0041L12.1353 12.8214L13 11.9608ZM6.08255 10.1543C3.83763 10.1543 2.01489 8.32747 2.01489 6.0866C2.01489 3.84574 3.84169 2.01894 6.08255 2.01894C8.32748 2.01894 10.1502 3.84574 10.1502 6.0866C10.1502 7.13802 9.75238 8.13261 9.02978 8.89175C8.25441 9.70365 7.20704 10.1543 6.08255 10.1543Z" fill="#999999"/>
</svg>
