<svg xmlns="http://www.w3.org/2000/svg" width="16" height="16" viewBox="0 0 16 16" fill="none">
  <path d="M10.6252 9.58403C11.2202 9.58404 11.7975 9.78606 12.2627 10.157C12.7279 10.528 13.0533 11.0458 13.1857 11.6259H14.4173C14.566 11.6261 14.709 11.683 14.8171 11.7851C14.9252 11.8871 14.9903 12.0266 14.999 12.1751C15.0077 12.3235 14.9594 12.4697 14.864 12.5837C14.7685 12.6977 14.6332 12.771 14.4855 12.7886L14.4173 12.7927L13.1851 12.7932C13.0522 13.3727 12.7266 13.8899 12.2616 14.2603C11.7966 14.6307 11.2197 14.8324 10.6252 14.8324C10.0308 14.8324 9.45385 14.6307 8.98885 14.2603C8.52386 13.8899 8.19827 13.3727 8.06534 12.7932L1.58274 12.7927C1.43405 12.7925 1.29103 12.7356 1.18291 12.6335C1.07478 12.5314 1.00972 12.3919 1.001 12.2435C0.992289 12.095 1.04058 11.9489 1.13602 11.8348C1.23146 11.7208 1.36683 11.6475 1.51448 11.63L1.58274 11.6259H8.06476C8.19718 11.0458 8.52261 10.528 8.98778 10.157C9.45295 9.78606 10.0303 9.58404 10.6252 9.58403ZM10.6252 10.7508C10.2384 10.7508 9.86747 10.9045 9.59395 11.178C9.32043 11.4515 9.16677 11.8225 9.16677 12.2093C9.16677 12.5961 9.32043 12.9671 9.59395 13.2406C9.86747 13.5141 10.2384 13.6677 10.6252 13.6677C11.0121 13.6677 11.383 13.5141 11.6565 13.2406C11.9301 12.9671 12.0837 12.5961 12.0837 12.2093C12.0837 11.8225 11.9301 11.4515 11.6565 11.178C11.383 10.9045 11.0121 10.7508 10.6252 10.7508ZM5.37476 2C6.63487 2 7.68672 2.88675 7.94166 4.07102H14.4173C14.566 4.07119 14.709 4.12813 14.8171 4.2302C14.9252 4.33228 14.9903 4.47178 14.999 4.62022C15.0077 4.76866 14.9594 4.91482 14.864 5.02885C14.7685 5.14287 14.6332 5.21615 14.4855 5.23372L14.4173 5.2378L7.92824 5.23838C7.79025 5.81169 7.46335 6.32188 7.00015 6.68681C6.53696 7.05175 5.96444 7.25019 5.37476 7.25019C4.78508 7.25019 4.21255 7.05175 3.74936 6.68681C3.28617 6.32188 2.95926 5.81169 2.82127 5.23838L1.58274 5.2378C1.43405 5.23763 1.29103 5.1807 1.18291 5.07862C1.07478 4.97655 1.00972 4.83704 1.001 4.6886C0.992289 4.54016 1.04058 4.394 1.13602 4.27998C1.23146 4.16595 1.36683 4.09267 1.51448 4.07511L1.58274 4.07102H2.80785C2.93475 3.48452 3.25866 2.95915 3.72568 2.58234C4.19271 2.20554 4.77468 2.00003 5.37476 2ZM5.37476 3.16677C4.98795 3.16677 4.61698 3.32043 4.34346 3.59395C4.06995 3.86747 3.91629 4.23843 3.91629 4.62524C3.91629 5.01205 4.06995 5.38302 4.34346 5.65653C4.61698 5.93005 4.98795 6.08371 5.37476 6.08371C5.76157 6.08371 6.13253 5.93005 6.40605 5.65653C6.67957 5.38302 6.83323 5.01205 6.83323 4.62524C6.83323 4.23843 6.67957 3.86747 6.40605 3.59395C6.13253 3.32043 5.76157 3.16677 5.37476 3.16677Z" fill="#262626"/>
</svg>