<svg width="16" height="16" viewBox="0 0 16 16" fill="none" xmlns="http://www.w3.org/2000/svg">
<path fill-rule="evenodd" clip-rule="evenodd" d="M13.8679 3.98295L11.7018 2.06167C11.4506 1.83921 11.4276 1.45512 11.6505 1.20434C11.873 0.953557 12.2571 0.930228 12.5078 1.1531L15.7955 4.06918C16.0467 4.29164 16.0696 4.67572 15.8468 4.92651C15.7861 4.99498 15.7131 5.04651 15.634 5.08066C15.5336 5.15425 15.4096 5.1977 15.2756 5.1977H11.9563C8.85606 5.1977 6.33365 7.72011 6.33365 10.8203V11.6043C6.33365 11.9405 6.06162 12.2121 5.72627 12.2121C5.39092 12.2121 5.1189 11.9401 5.1189 11.6047V10.8207C5.1189 7.05025 8.1862 3.98295 11.9563 3.98295H13.8679ZM11.5856 14.9178H2.24497C1.00688 14.9178 0 13.911 0 12.6733V3.33225C0 2.09458 1.00688 1.0877 2.24497 1.0877H8.53703C8.87238 1.0877 9.14441 1.35973 9.14441 1.69507C9.14441 2.03042 8.87238 2.30245 8.53703 2.30245H2.24497C1.67716 2.30245 1.21517 2.76444 1.21517 3.33225V12.6733C1.21517 13.2411 1.67716 13.7031 2.24497 13.7031H11.5856C12.1534 13.7031 12.6154 13.2411 12.6154 12.6733V7.81301C12.6154 7.47724 12.8874 7.20563 13.2228 7.20563C13.5581 7.20563 13.8301 7.47766 13.8301 7.81301V12.6729C13.8306 13.911 12.8237 14.9178 11.5856 14.9178Z" fill="#262626"/>
</svg>
